<?xml version="1.0" standalone="yes"?>

<svg version="1.1" viewBox="0.0 0.0 144.0 144.0" fill="none" stroke="none" stroke-linecap="square" stroke-miterlimit="10" xmlns="http://www.w3.org/2000/svg" xmlns:xlink="http://www.w3.org/1999/xlink"><clipPath id="p.0"><path d="m0 0l144.0 0l0 144.0l-144.0 0l0 -144.0z" clip-rule="nonzero"></path></clipPath><g clip-path="url(#p.0)"><path fill="#000000" fill-opacity="0.0" d="m0 0l144.0 0l0 144.0l-144.0 0z" fill-rule="nonzero"></path><path fill="#ffffff" d="m24.0 27.797901l96.0 0l0 11.716534l-96.0 0z" fill-rule="nonzero"></path><path fill="#ffffff" d="m24.0 48.417324l96.0 0l0 5.10236l-96.0 0z" fill-rule="nonzero"></path><path fill="#ffffff" d="m35.052494 62.422573l84.944885 0l0 1.4173203l-84.944885 0z" fill-rule="nonzero"></path><path fill="#ffffff" d="m35.052494 69.18635l84.944885 0l0 1.4173279l-84.944885 0z" fill-rule="nonzero"></path><path fill="#ffffff" d="m24.0 77.779526l96.0 0l0 5.1023636l-96.0 0z" fill-rule="nonzero"></path><path fill="#ffffff" d="m35.052494 90.95801l84.944885 0l0 1.4173203l-84.944885 0z" fill-rule="nonzero"></path><path fill="#ffffff" d="m35.052494 97.72179l84.944885 0l0 1.4173203l-84.944885 0z" fill-rule="nonzero"></path><path fill="#ffffff" d="m24.0 104.485565l96.0 0l0 11.716537l-96.0 0z" fill-rule="nonzero"></path></g></svg>

