<?xml version="1.0" standalone="yes"?>

<svg version="1.1" viewBox="0.0 0.0 224.86614173228347 219.20472440944883" fill="none" stroke="none" stroke-linecap="square" stroke-miterlimit="10" xmlns="http://www.w3.org/2000/svg" xmlns:xlink="http://www.w3.org/1999/xlink"><clipPath id="p.0"><path d="m0 0l224.86613 0l0 219.20473l-224.86613 0l0 -219.20473z" clip-rule="nonzero"></path></clipPath><g clip-path="url(#p.0)"><path fill="#000000" fill-opacity="0.0" d="m0 0l224.86613 0l0 219.20473l-224.86613 0z" fill-rule="nonzero"></path><path fill="#5ce4d5" fill-opacity="0.5333" d="m146.53018 143.72047l0 -135.77953l-135.77953 135.77953z" fill-rule="nonzero"></path><path fill="#fc5e6d" fill-opacity="0.5333" d="m78.33596 143.72047l135.77951 0l-135.77951 -135.77953z" fill-rule="nonzero"></path><path fill="#5fffa8" fill-opacity="0.5333" d="m78.33596 75.48163l0 135.77953l135.77951 -135.77953z" fill-rule="nonzero"></path><path fill="#307cfb" fill-opacity="0.5333" d="m180.15486 41.712597l0 135.77953l-135.77954 -135.77953z" fill-rule="nonzero"></path><path fill="#307cfb" fill-opacity="0.5333" d="m278.13385 -201.19948l0 -95.999985l96.0 95.999985z" fill-rule="nonzero"></path><path fill="#fd7ed5" fill-opacity="0.5333" d="m-588.46454 -196.16798l0 -95.999985l95.99997 95.999985z" fill-rule="nonzero"></path><path fill="#aa0dff" fill-opacity="0.5333" d="m-444.0315 -196.16798l0 -95.999985l96.0 95.999985z" fill-rule="nonzero"></path><path fill="#5ce4d5" fill-opacity="0.5333" d="m131.18373 -201.19948l0 -95.999985l96.0 95.999985z" fill-rule="nonzero"></path><path fill="#fbbd5e" fill-opacity="0.5333" d="m-10.732284 -201.19948l0 -95.999985l96.0 95.999985z" fill-rule="nonzero"></path><path fill="#fc5e6d" fill-opacity="0.5333" d="m-155.16536 -201.19948l0 -95.999985l96.0 95.999985z" fill-rule="nonzero"></path><path fill="#5fffa8" fill-opacity="0.5333" d="m-299.59842 -196.16798l0 -95.999985l96.0 95.999985z" fill-rule="nonzero"></path><path fill="#307cfb" fill-opacity="0.5333" d="m278.13385 -127.80315l0 -48.0l48.0 48.0z" fill-rule="nonzero"></path><path fill="#5ce4d5" fill-opacity="0.5333" d="m133.70079 -127.80315l0 -48.0l48.0 48.0z" fill-rule="nonzero"></path><path fill="#fbbd5e" fill-opacity="0.5333" d="m-10.732284 -127.80315l0 -48.0l48.0 48.0z" fill-rule="nonzero"></path><path fill="#fd7ed5" fill-opacity="0.5333" d="m-588.46454 -118.173225l0 -48.000008l48.0 48.000008z" fill-rule="nonzero"></path><path fill="#aa0dff" fill-opacity="0.5333" d="m-444.0315 -118.173225l0 -48.000008l48.0 48.000008z" fill-rule="nonzero"></path><path fill="#5fffa8" fill-opacity="0.5333" d="m-299.59842 -118.173225l0 -48.000008l48.0 48.000008z" fill-rule="nonzero"></path><path fill="#fc5e6d" fill-opacity="0.5333" d="m-155.16536 -121.10105l0 -47.999992l48.000008 47.999992z" fill-rule="nonzero"></path><path fill="#aa0dff" fill-opacity="0.5333" d="m146.53018 75.48163l0 135.77953l-135.77953 -135.77953z" fill-rule="nonzero"></path><path fill="#fbbd5e" fill-opacity="0.5333" d="m578.9536 -213.11583l67.93701 -67.842514l-0.09448242 135.77953z" fill-rule="nonzero"></path><path fill="#fc5e6d" fill-opacity="0.5333" d="m553.3953 -142.2508l34.015747 -33.85826l-0.15753174 67.874016z" fill-rule="nonzero"></path><path fill="#fd7ed5" fill-opacity="0.5333" d="m112.31975 7.941917l67.842514 67.937004l-135.77953 -0.09448242z" fill-rule="nonzero"></path><path fill="#aa0dff" fill-opacity="0.5333" d="m44.382736 75.78444l67.93701 -67.84252l-0.09449005 135.77954z" fill-rule="nonzero"></path><path fill="#fc5e6d" fill-opacity="0.5333" d="m112.31975 211.26213l67.842514 -67.93701l-135.77953 0.09448242z" fill-rule="nonzero"></path><path fill="#5fffa8" fill-opacity="0.5333" d="m180.16226 143.32512l-67.937004 -67.84252l0.09449005 135.77954z" fill-rule="nonzero"></path><path fill="#fbbd5e" fill-opacity="0.5333" d="m112.34937 56.677032l33.85827 34.015747l-67.874016 -0.15747833z" fill-rule="nonzero"></path><path fill="#5ce4d5" fill-opacity="0.5333" d="m78.33494 90.5353l34.015747 -33.85827l-0.15748596 67.874016z" fill-rule="nonzero"></path><path fill="#307cfb" fill-opacity="0.5333" d="m146.20895 124.85551l-34.015755 33.85827l0.15748596 -67.874016z" fill-rule="nonzero"></path><path fill="#5fffa8" fill-opacity="0.5333" d="m112.190575 158.71378l-33.85827 -34.015747l67.87402 0.15747833z" fill-rule="nonzero"></path><path fill="#fbbd5e" fill-opacity="0.5333" d="m44.375328 177.49213l0 -135.77953l135.77954 135.77953z" fill-rule="nonzero"></path></g></svg>

