<?xml version="1.0" standalone="yes"?>

<svg version="1.1" viewBox="0.0 0.0 960.0 960.0" fill="none" stroke="none" stroke-linecap="square" stroke-miterlimit="10" xmlns="http://www.w3.org/2000/svg" xmlns:xlink="http://www.w3.org/1999/xlink"><clipPath id="p.0"><path d="m0 0l960.0 0l0 960.0l-960.0 0l0 -960.0z" clip-rule="nonzero"></path></clipPath><g clip-path="url(#p.0)"><path fill="#000000" fill-opacity="0.0" d="m0 0l960.0 0l0 960.0l-960.0 0z" fill-rule="nonzero"></path><path fill="#ffffff" d="m465.7953 95.244286l28.409424 0l0 296.65454l-28.409424 0z" fill-rule="nonzero"></path><path fill="#ffffff" d="m465.7953 406.95538l0 0c0 -85.25189 6.3596497 -154.36221 14.204712 -154.36221l0 0c3.767334 0 7.3803406 16.263123 10.0442505 45.21164c2.66391 28.948547 4.1604614 68.21118 4.1604614 109.15057l0 0c0 85.25189 -6.3596497 154.36218 -14.204712 154.36218l0 0c-3.767334 0 -7.3803406 -16.263123 -10.0442505 -45.21161c-2.66391 -28.948547 -4.1604614 -68.21118 -4.1604614 -109.15057z" fill-rule="nonzero"></path><path fill="#ffffff" d="m432.0 47.622047l0 0c0 -26.30093 21.490326 -47.622047 48.0 -47.622047l0 0c12.730377 0 24.939392 5.017308 33.9411 13.948174c9.00177 8.930867 14.058899 21.04372 14.058899 33.673874l0 0c0 26.300934 -21.490326 47.622047 -48.0 47.622047l0 0c-26.509674 0 -48.0 -21.321114 -48.0 -47.622047zm23.811035 0l0 0c0 13.150467 10.829773 23.81102 24.188965 23.81102c13.359192 0 24.188965 -10.660553 24.188965 -23.81102c0 -13.150467 -10.829773 -23.811024 -24.188965 -23.811024l0 0c-13.359192 0 -24.188965 10.660557 -24.188965 23.811024z" fill-rule="nonzero"></path><path fill="#ffffff" d="m475.3113 542.17694l0 0c0 -0.86309814 0.69970703 -1.5628052 1.5628357 -1.5628052l6.25119 0l0 0c0.41448975 0 0.8120117 0.16461182 1.105072 0.45770264c0.29309082 0.29309082 0.45776367 0.6906128 0.45776367 1.1051025l0 405.18848c0 0.8631592 -0.69970703 1.5628662 -1.5628357 1.5628662l-6.25119 0c-0.86312866 0 -1.5628357 -0.69970703 -1.5628357 -1.5628662z" fill-rule="nonzero"></path><path fill="#ffffff" d="m475.3113 949.313l0 0c0 -5.8893433 2.0990906 -10.663574 4.688446 -10.663574l0 0c1.2434387 0 2.4359436 1.1234741 3.315216 3.123291c0.87924194 1.9998169 1.3731995 4.712097 1.3731995 7.540283l0 0c0 5.8893433 -2.0990906 10.663574 -4.6884155 10.663574l0 0c-2.5893555 0 -4.688446 -4.774231 -4.688446 -10.663574z" fill-rule="nonzero"></path></g></svg>

